<svg width="123" height="87" viewBox="0 0 123 87" fill="none" xmlns="http://www.w3.org/2000/svg">
<path fill-rule="evenodd" clip-rule="evenodd" d="M40.3838 4.99199C38.6748 7.64539 37.8878 10.9734 37.1233 14.1889C36.5611 16.4826 34.9646 24.3753 34.7847 30.2442C34.4399 30.3192 34.0876 30.3942 33.7278 30.4691C32.2662 30.7839 30.7371 31.2337 29.298 31.7508C29.0132 31.8558 28.7358 31.9607 28.466 32.0657C28.2112 32.1706 27.9563 32.2755 27.7014 32.3805C27.2517 32.5828 26.8245 32.7852 26.4422 32.9876L26.4197 33.0101H26.3972C25.8576 33.3249 24.2385 34.4717 20.9106 38.7216L20.8881 38.7441L20.8656 38.7666C17.7175 42.7917 13.9622 48.3233 9.75728 55.2492C0.650276 70.2026 -0.159233 75.7343 0.0206604 78.6126V78.635C0.0356522 78.785 0.0506439 78.9199 0.0656357 79.0398C0.47039 82.5027 3.1013 84.9537 7.17134 85.6508C9.86971 86.5278 13.2202 87 16.908 87C18.3471 87 19.8537 86.91 21.3828 86.7751C22.1698 86.7077 23.0917 86.6177 24.1036 86.5278C33.5479 85.6958 51.2897 84.2791 51.4696 84.2567L52.2117 84.1892L52.8188 83.7395C62.5104 76.3414 63.0052 74.9473 63.2525 74.2727L64.3993 71.1246L61.0488 70.8547C60.9589 70.8547 51.5596 70.1127 35.9989 68.0439C35.4818 67.9765 34.7172 67.954 33.7503 67.954C31.9964 67.954 28.8932 68.0664 25.4528 68.4712C25.7376 68.3662 26.03 68.2763 26.3298 68.2013C28.6684 67.5268 30.6922 65.9977 32.0413 63.9289C34.6498 59.8589 36.1114 56.7108 36.5161 54.3047C36.6061 53.7426 36.8759 52.0786 35.8415 46.2996C35.9165 46.2996 35.984 46.2996 36.0439 46.2996C36.8309 46.3895 37.7979 46.4795 38.8547 46.4795C45.6007 46.4795 50.3903 42.297 53.4709 33.7072C55.8994 26.8713 58.6203 22.5539 61.5435 20.8674C62.5554 20.2828 63.8821 19.9904 65.4787 19.9904C65.8384 19.9904 66.2057 20.0054 66.5805 20.0354C67.5249 20.1029 68.3794 20.2603 69.0765 20.4177C68.1545 21.4521 67.5024 22.7563 67.2776 24.1954C66.9403 26.6464 66.3781 28.8726 65.8609 30.0644C65.2988 31.3011 64.9615 32.4254 64.6691 33.4148C64.152 35.1463 63.8372 36.0907 62.8927 36.9452C60.0819 39.5311 57.9682 40.8578 56.574 40.8578C56.2367 40.8578 55.9219 40.7904 55.4497 40.633L51.0649 39.1489L52.1442 43.6462C52.2341 43.961 53.0212 46.8392 56.7764 47.8511H56.7989C57.8108 48.121 58.8452 48.2559 59.857 48.2559C59.947 48.2559 60.4417 48.2784 62.9827 48.4358C64.849 48.5707 66.2882 50.0548 66.3781 51.8987C66.9178 64.4911 66.3556 67.999 66.1308 68.8534C65.6361 69.9778 61.8583 77.6681 60.3518 80.299C59.9245 81.0636 59.4523 81.8281 58.9351 82.6376L56.4616 86.5503H71.9772L72.1346 84.1442C72.1346 84.1217 72.2696 82.098 72.4045 79.1073C76.1597 82.1654 79.038 84.459 79.083 84.504L80.2298 85.4259L81.6239 84.8863C81.7588 84.8188 85.1543 83.4696 88.5722 81.9406C90.6185 80.9961 92.26 80.1866 93.4068 79.512C94.7335 78.77 97.162 77.3758 96.5549 75.0147C96.1501 73.3732 90.2362 64.0638 88.4148 61.2306C86.0088 57.4753 80.0499 48.3458 76.8343 44.6581C75.4626 43.1065 74.0685 41.7573 72.5844 40.5655C74.2034 38.3619 75.3952 36.1357 76.1597 34.4492C77.9586 30.5815 79.2628 23.8581 78.3184 20.665V20.6201L78.2959 20.5976C78.2959 20.5976 78.2285 20.3502 78.0711 19.923C77.7338 19.001 77.3515 18.0791 76.9692 17.2021C75.9349 14.841 74.5182 11.648 72.2696 9.4443C66.2882 3.6428 57.9682 0.112432 50.008 0C49.933 0 49.8581 0 49.7831 0C45.6456 0 42.4975 1.664 40.3838 4.99199ZM49.9855 2.54097C57.6084 2.6534 65.2988 6.22874 70.4931 11.2657C72.382 13.1096 73.6862 16.0553 74.6306 18.214C75.1028 19.3158 75.4626 20.2378 75.665 20.7999C75.7999 21.1597 75.8674 21.3846 75.8674 21.3846C76.542 23.6782 75.5976 29.6146 73.8436 33.3923C73.1465 34.8989 71.4825 38.2494 68.8966 41.0602C70.9878 42.3869 72.9442 44.0734 74.923 46.3445C80.0049 52.146 93.7216 74.1602 94.0814 75.6219C94.4412 77.061 80.6795 82.5027 80.6795 82.5027C80.6795 82.5027 75.6425 78.4776 70.1109 73.9354C69.8635 79.512 69.5937 83.9868 69.5937 83.9868H61.0938C61.6035 83.1923 62.0907 82.3828 62.5554 81.5583C64.1969 78.725 68.4244 70.0902 68.5593 69.7079C69.4138 66.8746 69.1889 57.7676 68.9191 51.7863C68.7842 48.6382 66.3107 46.1197 63.1626 45.8948C61.611 45.8049 60.2168 45.7149 59.857 45.7149C59.0925 45.7149 58.283 45.6025 57.4285 45.4001C55.0225 44.7255 54.6177 43.039 54.6177 43.039C55.2248 43.2414 55.8545 43.3988 56.574 43.3988C58.373 43.3988 60.7115 42.4319 64.6242 38.8341C66.9178 36.6979 66.7604 34.2468 68.177 31.1212C68.8291 29.6821 69.4363 27.2086 69.8185 24.5777C70.1558 22.2841 72.0897 20.6425 74.3158 20.6425C74.6456 20.6425 74.9829 20.68 75.3277 20.755C74.6756 20.1029 73.4613 19.1135 71.7074 18.5063C71.2577 18.3489 69.2339 17.6968 66.7829 17.4944C66.3631 17.4645 65.9284 17.4495 65.4787 17.4495C63.7247 17.4495 61.8583 17.7418 60.2618 18.6637C55.3598 21.497 52.3916 29.1649 51.0649 32.8527C47.6244 42.4769 42.6999 43.9385 38.8547 43.9385C37.3706 43.9385 36.0664 43.7136 35.0545 43.6687C35.0245 43.6687 34.9946 43.6687 34.9646 43.6687C33.9977 43.6687 33.2106 44.4107 33.1432 45.3326C33.1282 45.4826 33.1357 45.64 33.1657 45.8049C33.6379 48.3233 34.2675 52.236 33.9977 53.9C33.6154 56.2386 31.8839 59.4541 29.8826 62.5573C28.8932 64.0863 27.3867 65.2331 25.6327 65.7503C23.3616 66.3799 21.2254 67.2344 19.5389 68.3363C18.5945 68.9209 14.367 71.5968 13.0403 74.2502C17.695 71.4169 28.9157 70.495 33.7503 70.495C34.6048 70.495 35.2569 70.5174 35.6617 70.5849C51.4696 72.6761 60.8689 73.4182 60.8689 73.4182C60.3742 74.7674 51.2672 81.7157 51.2672 81.7157C51.2672 81.7157 33.458 83.1548 23.8788 83.9868C22.8669 84.0768 21.9449 84.1667 21.1354 84.2342C19.6663 84.3691 18.2571 84.4366 16.908 84.4366C13.3101 84.4366 10.1845 83.9868 7.77848 83.1773C5.14757 82.7726 2.89893 81.4458 2.6066 78.7475C2.59161 78.6425 2.57661 78.5376 2.56162 78.4327C2.33676 74.9698 4.67535 68.5162 11.9385 56.5759C16.818 48.5482 20.3934 43.5112 22.8669 40.3407C22.8819 40.3257 22.8969 40.3107 22.9118 40.2957C26.2848 36.0008 27.6565 35.2362 27.6565 35.2362C27.9488 35.0788 28.3086 34.8989 28.7358 34.719C28.9457 34.6291 29.1706 34.5392 29.4104 34.4492C29.6503 34.3443 29.9051 34.2468 30.175 34.1569C31.3443 33.7296 32.7834 33.2799 34.29 32.9426C34.6198 32.8677 34.9571 32.8002 35.3019 32.7402H35.3244C36.4712 32.5154 37.2807 31.5485 37.3257 30.4017C37.4831 25.0049 38.9896 17.337 39.5968 14.7736C41.0809 8.63479 42.565 2.54097 49.7831 2.54097C49.8431 2.54097 49.9106 2.54097 49.9855 2.54097Z" fill="#00042D"/>
<path d="M2.56225 78.4319C2.57724 78.5368 2.59223 78.6417 2.60722 78.7467C2.89954 81.445 5.14819 82.7717 7.7791 83.1765C11.0846 84.2783 15.7843 84.7281 21.136 84.2334C21.9456 84.1659 22.8675 84.076 23.8794 83.986C33.4586 83.154 51.2679 81.7149 51.2679 81.7149C51.2679 81.7149 60.3749 76.0033 60.8696 74.6542C60.8696 74.6542 59.5429 74.3618 57.0469 73.9121C55.3604 73.5973 53.1342 73.215 50.3909 72.7653C46.4558 72.1132 41.4863 71.3486 35.6623 70.5841C33.0763 70.2243 18.5051 70.9214 13.0409 74.2494C14.3676 71.596 18.5951 68.9201 19.5395 68.313C21.226 67.2336 23.3622 66.3791 25.6333 65.7495C27.3873 65.2323 28.8939 64.0855 29.8833 62.5564C31.8845 59.4533 33.616 56.2378 33.9983 53.8992C34.2681 52.2352 33.6385 48.3225 33.1663 45.8041C33.1363 45.6392 33.1288 45.4817 33.1438 45.3318C33.2337 44.3874 34.0432 43.6229 35.0551 43.6678C38.6979 43.8477 46.2984 46.1863 51.0655 32.8519C52.3922 29.1641 55.3604 21.4962 60.2624 18.6629C62.2637 17.5161 64.6698 17.3362 66.7835 17.4936C69.2345 17.696 71.2583 18.3481 71.708 18.5055C73.462 19.1127 74.6762 20.1021 75.3283 20.7542C74.9835 20.6792 74.6462 20.6417 74.3164 20.6417C72.0903 20.6417 70.1565 22.2832 69.8192 24.5769C69.4369 27.2078 68.8298 29.6813 68.1776 31.1204C66.761 34.246 66.9184 36.697 64.6248 38.8333C59.1606 43.8702 56.7321 43.7578 54.6183 43.0382C54.6183 43.0382 55.0231 44.7247 57.4291 45.3993C58.2836 45.6017 59.0931 45.7141 59.8577 45.7141C60.2174 45.7141 61.6116 45.8041 63.1632 45.894C66.3113 46.1189 68.7848 48.6373 68.9197 51.7854C69.1895 57.7668 69.4144 66.8738 68.5599 69.7071C68.425 70.0894 64.1975 78.7242 62.556 81.5575C62.0913 82.382 61.6041 83.1915 61.0944 83.986H69.5943C69.5943 83.986 69.8641 79.5112 70.1115 73.9346C75.6431 78.4768 80.6801 82.5019 80.6801 82.5019C80.6801 82.5019 94.4418 77.0602 94.082 75.6211C93.7222 74.1594 80.0055 52.1452 74.9236 46.3437C72.9448 44.0726 70.9884 42.3861 68.8972 41.0594C71.4831 38.2486 73.1471 34.8981 73.8442 33.3915C75.5982 29.6138 76.5426 23.6774 75.868 21.3838C75.868 21.3838 75.8005 21.1589 75.6656 20.7991C75.4632 20.237 75.1035 19.315 74.6312 18.2132C73.6868 16.0545 72.3826 13.1088 70.4937 11.2649C65.2994 6.22793 57.609 2.65259 49.9861 2.54016C42.5881 2.42772 41.0815 8.56652 39.5974 14.7728C38.9903 17.3362 37.4837 25.0041 37.3263 30.4008C37.2813 31.5477 36.4718 32.5146 35.325 32.7394H35.3025C34.9577 32.7994 34.6204 32.8669 34.2906 32.9418C32.784 33.2791 31.3449 33.7288 30.1756 34.1561C29.9057 34.246 29.6509 34.3435 29.411 34.4484C29.1712 34.5383 28.9463 34.6283 28.7365 34.7182C28.3092 34.8981 27.9494 35.078 27.6571 35.2354C27.6571 35.2354 26.2854 36 22.9125 40.2949C22.8975 40.3099 22.8825 40.3249 22.8675 40.3398C20.394 43.5104 16.8186 48.5474 11.9391 56.5751C4.67597 68.5154 2.33738 74.969 2.56225 78.4319Z" fill="url(#paint0_linear_2001_4006)"/>
<path style="mix-blend-mode:multiply" d="M19.5389 68.3357C21.2253 67.2339 23.3616 66.3794 25.6327 65.7498C27.3866 65.2326 28.8932 64.0858 29.8826 62.5567C31.8839 59.4536 33.6154 56.238 33.9976 53.8994C34.2675 52.2354 33.6379 48.3228 33.1656 45.8043C33.1357 45.6394 33.1282 45.482 33.1431 45.3321C32.5135 47.3784 32.536 50.4365 31.8839 52.3029C28.1512 63.5011 20.2134 67.5262 19.5389 68.3357Z" fill="url(#paint1_linear_2001_4006)"/>
<path style="mix-blend-mode:multiply" d="M2.56163 78.4334C2.57662 78.5384 2.59162 78.6433 2.60661 78.7482C2.89893 81.4466 5.14758 82.7733 7.77848 83.1781C11.084 84.2799 15.7837 84.7296 21.1354 84.2349C21.9449 84.1675 22.8669 84.0775 23.8788 83.9876C33.458 83.1556 51.2672 81.7165 51.2672 81.7165C51.2672 81.7165 54.8201 76.9044 57.0462 73.9137C55.3598 73.5989 53.1336 73.2166 50.3903 72.7669C48.3215 75.6901 45.2409 77.7813 38.7648 78.6583C29.343 79.94 22.3722 81.2892 14.0972 80.4347C9.68983 79.985 6.45178 77.9837 6.78908 75.2404C7.89091 65.5487 17.7849 47.4022 22.8669 40.3414C20.3934 43.512 16.818 48.549 11.9385 56.5766C4.67536 68.5169 2.33677 74.9705 2.56163 78.4334Z" fill="url(#paint2_linear_2001_4006)"/>
<path d="M77.9586 84.2559H33.8177C33.2331 84.2559 32.7609 83.7837 32.7609 83.1991V82.5469C32.7609 81.9623 33.2331 81.5126 33.8177 81.5126H77.9586C78.5433 81.5126 79.0155 81.9623 79.0155 82.5469V83.1991C79.0155 83.7837 78.5433 84.2559 77.9586 84.2559Z" fill="white"/>
<path d="M68.6265 84.2559H23.1365C22.7317 84.2559 22.3944 83.9186 22.3944 83.5139V82.8842C22.3944 82.1197 23.0241 81.5126 23.7886 81.5126H68.6265C68.6415 81.5126 68.649 81.5126 68.649 81.5126V84.2334C68.649 84.2484 68.6415 84.2559 68.6265 84.2559Z" fill="white"/>
<path d="M68.6265 84.2559H23.1365C22.7317 84.2559 22.3944 83.9186 22.3944 83.5139V82.8842C22.3944 82.1197 23.0241 81.5126 23.7886 81.5126H68.6265C68.6415 81.5126 68.649 81.5126 68.649 81.5126V84.2334C68.649 84.2484 68.6415 84.2559 68.6265 84.2559Z" fill="white"/>
<path d="M102.761 84.2569H50.7722C49.7153 84.2569 48.9958 83.1551 49.423 82.1881L64.7587 46.7495C65.0061 46.2099 65.5233 45.8726 66.1304 45.8726H118.119C119.176 45.8726 119.895 46.9519 119.468 47.9413L104.132 83.3574C103.885 83.8971 103.368 84.2569 102.761 84.2569Z" fill="url(#paint3_linear_2001_4006)"/>
<path d="M102.761 84.2569H50.7722C49.7153 84.2569 48.9958 83.1551 49.423 82.1881L64.7587 46.7495C65.0061 46.2099 65.5233 45.8726 66.1304 45.8726H118.119C119.176 45.8726 119.895 46.9519 119.468 47.9413L104.132 83.3574C103.885 83.8971 103.368 84.2569 102.761 84.2569Z" fill="white"/>
<path d="M105.302 84.2566H53.3136C52.2567 84.2566 51.5372 83.1548 51.9644 82.1879L67.3002 46.7493C67.5475 46.2096 68.0647 45.8723 68.6718 45.8723H120.66C121.717 45.8723 122.437 46.9517 122.01 47.9411L106.674 83.3572C106.427 83.8969 105.909 84.2566 105.302 84.2566Z" fill="url(#paint4_linear_2001_4006)"/>
<path style="mix-blend-mode:multiply" d="M54.6181 43.0393C54.6181 43.0393 55.8773 45.4229 58.8905 44.8157C64.9618 43.624 68.807 39.2391 70.8758 33.7299C72.1575 30.3345 72.6072 27.2763 73.057 25.0052C73.5517 22.3518 75.3281 20.7553 75.3281 20.7553C74.9833 20.6803 74.646 20.6428 74.3162 20.6428C72.09 20.6428 70.1562 22.2843 69.8189 24.5779C69.4367 27.2089 68.8295 29.6824 68.1774 31.1215C66.7608 34.2471 66.9182 36.6981 64.6246 38.8343C59.1604 43.8713 56.7318 43.7589 54.6181 43.0393Z" fill="url(#paint5_linear_2001_4006)"/>
<path style="mix-blend-mode:multiply" d="M35.0548 43.668C38.6976 43.8479 46.298 46.1864 51.0652 32.852C52.3919 29.1642 55.3601 21.4963 60.2621 18.6631C62.2634 17.5162 64.6694 17.3364 66.7832 17.4938C53.4937 14.9303 50.8628 24.7344 45.511 33.9988C41.1486 41.5542 36.6963 42.4537 35.0548 43.668Z" fill="url(#paint6_linear_2001_4006)"/>
<path d="M42.3624 54.3719C42.5198 51.5836 42.6547 48.7278 42.6322 46.9964C42.6322 46.749 42.8121 46.5466 43.0595 46.5466C43.3068 46.5466 43.5092 46.7265 43.5092 46.9739C43.5317 48.7503 43.3743 51.6286 43.2394 54.4169C43.1045 56.8454 42.992 59.3864 42.992 61.0279C42.992 61.2528 42.7896 61.4551 42.5423 61.4551C42.2949 61.4551 42.1151 61.2528 42.1151 61.0279C42.1151 59.3639 42.2275 56.9354 42.3624 54.3719Z" fill="url(#paint7_linear_2001_4006)"/>
<path d="M53.9879 47.852C53.9879 47.6046 54.1678 47.4022 54.4152 47.4022C54.6625 47.4022 54.8649 47.5821 54.8649 47.8295C54.9099 50.6628 54.775 53.8333 54.64 56.914C54.5726 58.2857 54.5051 59.6124 54.4601 60.8716C54.4601 61.1189 54.2578 61.2988 54.0329 61.2988C54.0329 61.2988 54.0254 61.2988 54.0104 61.2988C53.7856 61.2988 53.5832 61.074 53.5832 60.8491C53.6282 59.5674 53.6956 58.2407 53.7631 56.869C53.898 53.8108 54.0329 50.6628 53.9879 47.852Z" fill="url(#paint8_linear_2001_4006)"/>
<defs>
<linearGradient id="paint0_linear_2001_4006" x1="99.3454" y1="71.359" x2="82.6869" y2="-8.3406" gradientUnits="userSpaceOnUse">
<stop stop-color="#FF00C1"/>
<stop offset="1" stop-color="#F4AC24"/>
</linearGradient>
<linearGradient id="paint1_linear_2001_4006" x1="44.9166" y1="70.798" x2="46.0521" y2="44.4504" gradientUnits="userSpaceOnUse">
<stop stop-color="#F4D63B" stop-opacity="0"/>
<stop offset="1" stop-color="#5C1CB2"/>
</linearGradient>
<linearGradient id="paint2_linear_2001_4006" x1="1.73256" y1="52.9233" x2="22.1694" y2="115.869" gradientUnits="userSpaceOnUse">
<stop stop-color="#F4D63B" stop-opacity="0"/>
<stop offset="1" stop-color="#5C1CB2"/>
</linearGradient>
<linearGradient id="paint3_linear_2001_4006" x1="74.9739" y1="41.9208" x2="64.5063" y2="82.954" gradientUnits="userSpaceOnUse">
<stop stop-color="#A76DFC"/>
<stop offset="1" stop-color="#5C1CB2"/>
</linearGradient>
<linearGradient id="paint4_linear_2001_4006" x1="77.5157" y1="41.9205" x2="67.0481" y2="82.9538" gradientUnits="userSpaceOnUse">
<stop stop-color="#A76DFC"/>
<stop offset="1" stop-color="#5C1CB2"/>
</linearGradient>
<linearGradient id="paint5_linear_2001_4006" x1="92.7753" y1="51.2142" x2="72.7462" y2="6.05409" gradientUnits="userSpaceOnUse">
<stop stop-color="#F4D63B" stop-opacity="0"/>
<stop offset="1" stop-color="#5C1CB2"/>
</linearGradient>
<linearGradient id="paint6_linear_2001_4006" x1="42.0213" y1="6.14936" x2="32.6259" y2="47.8905" gradientUnits="userSpaceOnUse">
<stop stop-color="#F4D63B" stop-opacity="0"/>
<stop offset="1" stop-color="#5C1CB2"/>
</linearGradient>
<linearGradient id="paint7_linear_2001_4006" x1="-37.2791" y1="48.6853" x2="-36.1154" y2="67.186" gradientUnits="userSpaceOnUse">
<stop stop-color="#F4AC24"/>
<stop offset="1" stop-color="#FF00C1"/>
</linearGradient>
<linearGradient id="paint8_linear_2001_4006" x1="-21.9637" y1="47.7213" x2="-20.801" y2="66.2117" gradientUnits="userSpaceOnUse">
<stop stop-color="#F4AC24"/>
<stop offset="1" stop-color="#FF00C1"/>
</linearGradient>
</defs>
</svg>
