<svg width="28" height="24" viewBox="0 0 28 24" fill="none" xmlns="http://www.w3.org/2000/svg">
<path fill-rule="evenodd" clip-rule="evenodd" d="M13.5165 4.25165C10.0939 4.25165 7.95536 5.97367 7.09934 9.4177C8.38287 7.69568 9.88016 7.05005 11.5912 7.4803C12.5674 7.72572 13.2655 8.43856 14.0376 9.22778C15.2959 10.5129 16.7525 12.0002 19.9332 12.0002C23.3552 12.0002 25.4943 10.2782 26.3498 6.83467C25.0668 8.55669 23.5695 9.20232 21.8585 8.77156C20.8817 8.52614 20.1836 7.8133 19.4116 7.0246C18.1532 5.73843 16.6972 4.25165 13.5165 4.25165ZM7.09934 12.0002C3.67725 12.0002 1.5382 13.7222 0.682678 17.1663C1.96621 15.4443 3.4635 14.7986 5.17404 15.2289C6.15077 15.4743 6.84887 16.1871 7.6209 16.9764C8.87928 18.2615 10.3353 19.7488 13.5165 19.7488C16.9386 19.7488 19.0776 18.0273 19.9332 14.5832C18.6496 16.3053 17.1523 16.9509 15.4413 16.5206C14.4651 16.2747 13.767 15.5619 12.9949 14.7732C11.7366 13.488 10.28 12.0002 7.09934 12.0002Z" fill="#38BDF8"/>
</svg>
